<?xml version="1.0" standalone="no"?>
<!DOCTYPE svg PUBLIC "-//W3C//DTD SVG 20010904//EN"
 "http://www.w3.org/TR/2001/REC-SVG-20010904/DTD/svg10.dtd">
<svg version="1.0" xmlns="http://www.w3.org/2000/svg"
 width="178.000000pt" height="64.000000pt" viewBox="0 0 178.000000 64.000000"
 preserveAspectRatio="xMidYMid meet">

<g transform="translate(0.000000,64.000000) scale(0.100000,-0.100000)"
fill="#000000" stroke="none">
<path d="M1585 599 c-32 -29 -35 -35 -33 -83 l2 -51 3 45 c3 29 13 57 27 75
21 26 33 31 88 36 l63 6 -57 1 c-51 2 -61 -1 -93 -29z"/>
<path d="M1749 603 c20 -40 13 -63 -21 -78 -18 -8 -26 -14 -18 -15 26 0 60 30
60 54 0 12 -7 31 -16 42 -15 18 -15 18 -5 -3z"/>
<path d="M1644 485 c-9 -14 -15 -27 -13 -30 3 -2 12 10 21 26 21 36 15 39 -8
4z"/>
<path d="M1264 474 c-18 -14 -18 -14 6 -3 31 14 36 19 24 19 -6 0 -19 -7 -30
-16z"/>
<path d="M1350 465 c13 -14 26 -25 28 -25 3 0 -5 11 -18 25 -13 14 -26 25 -28
25 -3 0 5 -11 18 -25z"/>
<path d="M1586 429 c16 -20 31 -34 33 -32 3 2 -10 18 -29 36 l-34 32 30 -36z"/>
<path d="M1009 433 c-13 -16 -12 -17 4 -4 16 13 21 21 13 21 -2 0 -10 -8 -17
-17z"/>
<path d="M969 403 c-13 -16 -12 -17 4 -4 16 13 21 21 13 21 -2 0 -10 -8 -17
-17z"/>
<path d="M1651 388 c-1 -29 -21 -50 -21 -22 0 22 -7 15 -12 -11 -1 -11 -11
-26 -21 -34 -17 -12 -22 -10 -47 18 -48 52 -133 69 -161 34 -12 -16 -12 -17 1
-7 50 35 140 0 174 -69 32 -66 -1 -138 -89 -195 -11 -7 -6 -6 10 2 69 33 110
97 102 158 -5 34 -2 40 22 52 32 17 55 56 48 82 -3 14 -5 11 -6 -8z"/>
<path d="M1128 393 c-29 -3 -48 -9 -48 -16 1 -36 57 -64 85 -43 15 11 23 10
45 -1 20 -9 35 -11 53 -4 28 11 52 45 42 61 -6 10 -77 11 -177 3z"/>
<path d="M540 370 c-19 -5 -13 -7 22 -7 65 0 88 -21 88 -81 0 -40 -5 -50 -42
-85 -23 -22 -32 -35 -21 -29 43 23 73 71 73 117 0 69 -51 105 -120 85z"/>
<path d="M946 371 c-4 -5 -2 -12 3 -15 5 -4 12 -2 15 3 4 5 2 12 -3 15 -5 4
-12 2 -15 -3z"/>
<path d="M485 350 c-3 -6 1 -7 9 -4 18 7 21 14 7 14 -6 0 -13 -4 -16 -10z"/>
<path d="M881 334 c-28 -35 -27 -75 2 -102 13 -12 27 -22 31 -22 5 0 -3 9 -18
21 -34 27 -35 71 -1 104 13 14 20 25 15 25 -5 0 -18 -12 -29 -26z"/>
<path d="M377 284 c-48 -32 -74 -43 -88 -39 -25 8 -59 -20 -59 -49 -1 -15 -32
-44 -109 -101 -60 -44 -107 -82 -105 -84 2 -2 45 27 96 66 123 92 116 88 141
65 12 -11 32 -23 44 -26 12 -4 32 -23 43 -42 12 -18 24 -34 27 -34 3 0 -2 11
-11 25 -23 35 -20 45 17 46 l32 2 -34 6 c-35 6 -35 6 -55 83 -6 26 -1 31 64
74 61 41 77 54 67 54 -1 0 -33 -20 -70 -46z m-100 -71 c-9 -9 -19 -14 -23 -11
-10 10 6 28 24 28 15 0 15 -1 -1 -17z m26 -10 c3 -5 8 -23 12 -40 8 -39 -9
-44 -46 -14 -23 19 -24 19 -5 40 20 22 32 26 39 14z"/>
<path d="M1180 306 c0 -2 7 -7 16 -10 8 -3 12 -2 9 4 -6 10 -25 14 -25 6z"/>
<path d="M1046 221 c-24 -25 -45 -37 -55 -34 -13 4 -13 3 -2 -5 11 -8 10 -11
-7 -16 -11 -4 -26 -14 -33 -24 -11 -14 -11 -15 1 -4 25 22 32 13 11 -14 -12
-15 -21 -31 -21 -37 0 -6 14 11 31 36 20 31 38 47 52 48 13 0 16 3 9 6 -9 3
-1 14 22 29 20 14 36 31 36 39 0 21 -1 20 -44 -24z"/>
<path d="M1211 181 c-10 -7 -4 -9 20 -8 29 2 35 -2 37 -22 5 -32 -16 -69 -48
-86 -14 -8 -18 -14 -10 -14 41 0 79 64 66 114 -7 26 -37 34 -65 16z"/>
<path d="M784 163 c16 -4 13 -10 -20 -46 l-39 -42 43 40 c48 44 52 56 20 54
-19 -1 -20 -2 -4 -6z"/>
<path d="M1165 160 c-3 -6 1 -7 9 -4 18 7 21 14 7 14 -6 0 -13 -4 -16 -10z"/>
<path d="M1083 114 c-35 -19 -63 -38 -63 -41 0 -5 109 54 125 68 16 16 1 9
-62 -27z"/>
<path d="M428 123 c12 -2 30 -2 40 0 9 3 -1 5 -23 4 -22 0 -30 -2 -17 -4z"/>
<path d="M1182 108 c-13 -13 -16 -58 -4 -58 4 0 8 12 7 28 0 23 4 27 27 27 14
-1 24 3 22 7 -8 12 -38 10 -52 -4z"/>
<path d="M838 74 c-38 -20 -36 -28 2 -9 17 9 30 18 30 20 0 7 -1 6 -32 -11z"/>
<path d="M604 64 c-18 -14 -18 -15 4 -4 12 6 22 13 22 15 0 8 -5 6 -26 -11z"/>
<path d="M1408 73 c7 -3 16 -2 19 1 4 3 -2 6 -13 5 -11 0 -14 -3 -6 -6z"/>
<path d="M720 64 c0 -24 28 -36 57 -25 l28 11 -32 -6 c-24 -4 -34 -1 -42 13
-6 10 -11 13 -11 7z"/>
<path d="M933 60 c5 -21 38 -24 62 -6 18 14 17 14 -13 3 -27 -10 -35 -9 -43 3
-9 13 -10 13 -6 0z"/>
<path d="M1328 63 c12 -2 32 -2 45 0 12 2 2 4 -23 4 -25 0 -35 -2 -22 -4z"/>
<path d="M387 29 c7 -7 15 -10 18 -7 3 3 -2 9 -12 12 -14 6 -15 5 -6 -5z"/>
<path d="M525 30 c-13 -6 -15 -9 -5 -9 8 0 22 4 30 9 18 12 2 12 -25 0z"/>
<path d="M453 13 c9 -2 25 -2 35 0 9 3 1 5 -18 5 -19 0 -27 -2 -17 -5z"/>
</g>
</svg>
